<svg width="211" height="211" viewBox="0 0 211 211" fill="none" xmlns="http://www.w3.org/2000/svg">
<g filter="url(#filter0_d_2712_2)">
<path d="M105.5 101.5C105.5 129.114 83.1142 151.5 55.5 151.5C27.8858 151.5 5.5 129.114 5.5 101.5C5.5 73.8858 27.8858 51.5 55.5 51.5C83.1142 51.5 105.5 73.8858 105.5 101.5Z" fill="white"/>
<path d="M205.5 101.5C205.5 129.114 183.114 151.5 155.5 151.5C127.886 151.5 105.5 129.114 105.5 101.5C105.5 73.8858 127.886 51.5 155.5 51.5C183.114 51.5 205.5 73.8858 205.5 101.5Z" fill="white"/>
<path d="M155.5 51.5C155.5 79.1142 133.114 101.5 105.5 101.5C77.8858 101.5 55.5 79.1142 55.5 51.5C55.5 23.8858 77.8858 1.5 105.5 1.5C133.114 1.5 155.5 23.8858 155.5 51.5Z" fill="white"/>
<path d="M155.5 151.5C155.5 179.114 133.114 201.5 105.5 201.5C77.8858 201.5 55.5 179.114 55.5 151.5C55.5 123.886 77.8858 101.5 105.5 101.5C133.114 101.5 155.5 123.886 155.5 151.5Z" fill="white"/>
<path d="M105.5 101.5C105.5 129.114 127.886 151.5 155.5 151.5C155.5 179.114 133.114 201.5 105.5 201.5C77.8858 201.5 55.5 179.114 55.5 151.5C83.1142 151.5 105.5 129.114 105.5 101.5ZM55.5 51.5C55.5 79.1142 77.8858 101.5 105.5 101.5C77.8858 101.5 55.5 123.886 55.5 151.5C27.8858 151.5 5.5 129.114 5.5 101.5C5.5 73.8858 27.8858 51.5 55.5 51.5ZM155.5 51.5C183.114 51.5 205.5 73.8858 205.5 101.5C205.5 129.114 183.114 151.5 155.5 151.5C155.5 123.886 133.114 101.5 105.5 101.5C133.114 101.5 155.5 79.1142 155.5 51.5ZM105.5 1.5C133.114 1.5 155.5 23.8858 155.5 51.5C127.886 51.5 105.5 73.8858 105.5 101.5C105.5 73.8858 83.1142 51.5 55.5 51.5C55.5 23.8858 77.8858 1.5 105.5 1.5Z" fill="#830AD1"/>
<path d="M105.5 101.5C105.5 129.114 83.1142 151.5 55.5 151.5M105.5 101.5C105.5 73.8858 83.1142 51.5 55.5 51.5M105.5 101.5C105.5 129.114 127.886 151.5 155.5 151.5M105.5 101.5C105.5 73.8858 127.886 51.5 155.5 51.5M105.5 101.5C133.114 101.5 155.5 79.1142 155.5 51.5M105.5 101.5C77.8858 101.5 55.5 79.1142 55.5 51.5M105.5 101.5C77.8858 101.5 55.5 123.886 55.5 151.5M105.5 101.5C133.114 101.5 155.5 123.886 155.5 151.5M55.5 151.5C27.8858 151.5 5.5 129.114 5.5 101.5C5.5 73.8858 27.8858 51.5 55.5 51.5M55.5 151.5C55.5 179.114 77.8858 201.5 105.5 201.5C133.114 201.5 155.5 179.114 155.5 151.5M55.5 51.5C55.5 23.8858 77.8858 1.5 105.5 1.5C133.114 1.5 155.5 23.8858 155.5 51.5M155.5 151.5C183.114 151.5 205.5 129.114 205.5 101.5C205.5 73.8858 183.114 51.5 155.5 51.5" stroke="#4D22B3" stroke-width="3"/>
<path d="M105.5 101.5C105.5 129.114 83.1142 151.5 55.5 151.5M105.5 101.5C105.5 73.8858 83.1142 51.5 55.5 51.5M105.5 101.5C105.5 129.114 127.886 151.5 155.5 151.5M105.5 101.5C105.5 73.8858 127.886 51.5 155.5 51.5M105.5 101.5C133.114 101.5 155.5 79.1142 155.5 51.5M105.5 101.5C77.8858 101.5 55.5 79.1142 55.5 51.5M105.5 101.5C77.8858 101.5 55.5 123.886 55.5 151.5M105.5 101.5C133.114 101.5 155.5 123.886 155.5 151.5M55.5 151.5C27.8858 151.5 5.5 129.114 5.5 101.5C5.5 73.8858 27.8858 51.5 55.5 51.5M55.5 151.5C55.5 179.114 77.8858 201.5 105.5 201.5C133.114 201.5 155.5 179.114 155.5 151.5M55.5 51.5C55.5 23.8858 77.8858 1.5 105.5 1.5C133.114 1.5 155.5 23.8858 155.5 51.5M155.5 151.5C183.114 151.5 205.5 129.114 205.5 101.5C205.5 73.8858 183.114 51.5 155.5 51.5" stroke="white" stroke-width="3"/>
</g>
<defs>
<filter id="filter0_d_2712_2" x="0" y="0" width="211" height="211" filterUnits="userSpaceOnUse" color-interpolation-filters="sRGB">
<feFlood flood-opacity="0" result="BackgroundImageFix"/>
<feColorMatrix in="SourceAlpha" type="matrix" values="0 0 0 0 0 0 0 0 0 0 0 0 0 0 0 0 0 0 127 0" result="hardAlpha"/>
<feOffset dy="4"/>
<feGaussianBlur stdDeviation="2"/>
<feComposite in2="hardAlpha" operator="out"/>
<feColorMatrix type="matrix" values="0 0 0 0 0 0 0 0 0 0 0 0 0 0 0 0 0 0 0.25 0"/>
<feBlend mode="normal" in2="BackgroundImageFix" result="effect1_dropShadow_2712_2"/>
<feBlend mode="normal" in="SourceGraphic" in2="effect1_dropShadow_2712_2" result="shape"/>
</filter>
</defs>
</svg>
